<?xml version="1.0" encoding="UTF-8"?>
<svg xmlns="http://www.w3.org/2000/svg" xmlns:xlink="http://www.w3.org/1999/xlink" viewBox="0 0 64 64" width="64px" height="64px">
<g id="surface208582138">
<path style=" stroke:none;fill-rule:nonzero;fill:rgb(22.745098%,36.862746%,98.823529%);fill-opacity:1;" d="M 18.832031 46.917969 L 5.917969 36.75 L 12.332031 24.832031 L 30.75 32 Z M 18.832031 46.917969 "/>
<path style=" stroke:none;fill-rule:nonzero;fill:rgb(60.392159%,47.843137%,98.823529%);fill-opacity:1;" d="M 58.667969 19.585938 L 57.667969 50.417969 L 37.167969 58.667969 L 24.832031 50.667969 L 42.832031 32 Z M 58.667969 19.585938 "/>
<path style=" stroke:none;fill-rule:nonzero;fill:rgb(84.705883%,67.843139%,98.823529%);fill-opacity:1;" d="M 58.667969 19.585938 L 42.414062 38.75 L 35 14.667969 L 42.085938 6.167969 Z M 58.667969 19.585938 "/>
<path style=" stroke:none;fill-rule:nonzero;fill:rgb(60.392159%,47.843137%,98.823529%);fill-opacity:1;" d="M 46.25 26.167969 L 31 49.585938 L 9.667969 57.332031 L 13.085938 45.332031 L 17.5 30.5 Z M 46.25 26.167969 "/>
<path style=" stroke:none;fill-rule:nonzero;fill:rgb(60.392159%,47.843137%,98.823529%);fill-opacity:1;" d="M 17.5 30.5 L 5.332031 26.417969 L 13.085938 5.332031 L 29.75 7.332031 L 46.25 26.167969 Z M 17.5 30.5 "/>
<path style=" stroke:none;fill-rule:nonzero;fill:rgb(78.039217%,21.568628%,98.823529%);fill-opacity:1;" d="M 14.667969 14.667969 L 48 14.667969 L 48 48 L 14.667969 48 Z M 14.667969 14.667969 "/>
<path style=" stroke:none;fill-rule:nonzero;fill:rgb(100%,100%,100%);fill-opacity:1;" d="M 18.667969 42 L 30.667969 42 L 30.667969 44 L 18.667969 44 Z M 27.332031 21.167969 L 27.332031 18.667969 L 20.667969 18.667969 L 20.667969 21.167969 L 22.667969 21.167969 L 22.667969 29.832031 L 20.667969 29.832031 L 20.667969 32.332031 L 27.332031 32.332031 L 27.332031 29.832031 L 25.546875 29.832031 L 25.546875 21.167969 Z M 33.832031 32.667969 C 31.332031 32.667969 30.003906 31.203125 29.5 30.601562 L 31.382812 28.460938 C 31.722656 28.839844 32.667969 29.832031 33.832031 29.832031 C 35.332031 29.832031 35.667969 28.332031 35.667969 27.5 L 35.667969 18.667969 L 38.667969 18.667969 L 38.667969 27.5 C 38.667969 28.332031 38.667969 29.667969 37.667969 31 C 36.964844 31.933594 35.332031 32.667969 33.832031 32.667969 Z M 33.832031 32.667969 "/>
</g>
</svg>
