<?xml version="1.0" encoding="UTF-8"?>
<svg xmlns="http://www.w3.org/2000/svg" xmlns:xlink="http://www.w3.org/1999/xlink" viewBox="0 0 64 64" width="64px" height="64px">
<g id="surface208693690">
<path style=" stroke:none;fill-rule:nonzero;fill:rgb(60.784316%,34.901962%,71.372551%);fill-opacity:1;" d="M 5.332031 5.332031 L 5.332031 58.667969 L 58.667969 58.667969 L 58.667969 5.332031 Z M 12.667969 30.332031 L 16 30.332031 L 16 16 L 12.667969 16 L 12.667969 11.667969 L 24 11.667969 L 24 16 L 20.667969 16 L 20.667969 30.332031 L 24 30.332031 L 24 34.667969 L 12.667969 34.667969 Z M 30.667969 51.332031 L 10.667969 51.332031 L 10.667969 48 L 30.667969 48 Z M 42.667969 26.332031 C 42.667969 29.332031 42 35 34.667969 35 C 30.667969 35 28.492188 32.59375 27.667969 31.609375 L 30.742188 28.09375 C 31.296875 28.710938 32.667969 30.332031 34.667969 30.332031 C 37.667969 30.332031 37.667969 27.332031 37.667969 26.332031 L 37.667969 11.667969 L 42.667969 11.667969 Z M 42.667969 26.332031 "/>
</g>
</svg>
